<svg width="100" height="99" viewBox="0 0 100 99" fill="none" xmlns="http://www.w3.org/2000/svg">
<path d="M50.3446 66C26.5846 66 22.3755 42.3204 21.6299 23.5392C21.4225 18.3149 21.3188 15.7028 23.2811 13.2859C25.2434 10.8691 27.5921 10.4728 32.2894 9.6803C36.9261 8.898 42.9872 8.25 50.3446 8.25C57.7015 8.25 63.7628 8.898 68.3993 9.6803C73.0968 10.4728 75.4452 10.8691 77.4075 13.2859C79.3701 15.7028 79.2662 18.3149 79.0587 23.5392C78.3133 42.3204 74.1042 66 50.3446 66Z" stroke="black" stroke-width="7"/>
<path d="M46.2188 33L52.4062 26.8125V43.3125" stroke="black" stroke-width="7" stroke-linecap="round" stroke-linejoin="round"/>
<path opacity="0.5" d="M79.2187 20.625L83.1317 21.9294C87.2159 23.2907 89.2578 23.9714 90.4256 25.5918C91.5938 27.2123 91.5938 29.3648 91.5933 33.6697V33.9688C91.5933 37.5194 91.5933 39.2947 90.7386 40.7471C89.8839 42.1996 88.3321 43.0617 85.2285 44.7859L73.0312 51.5625" stroke="black" stroke-width="7"/>
<path opacity="0.5" d="M21.4685 20.625L17.5554 21.9294C13.4715 23.2907 11.4295 23.9714 10.2615 25.5918C9.09359 27.2123 9.09363 29.3648 9.09375 33.6697V33.9688C9.09388 37.5194 9.09392 39.2947 9.94858 40.7471C10.8032 42.1996 12.3551 43.0617 15.4588 44.7859L27.656 51.5625" stroke="black" stroke-width="7"/>
<path opacity="0.5" d="M50.3438 66V78.375" stroke="black" stroke-width="7" stroke-linecap="round"/>
<path d="M64.7812 90.75H35.9062L37.3055 83.7536C37.6912 81.8256 39.3841 80.4375 41.3504 80.4375H59.3371C61.3035 80.4375 62.9964 81.8256 63.382 83.7536L64.7812 90.75Z" stroke="black" stroke-width="7" stroke-linecap="round" stroke-linejoin="round"/>
<path opacity="0.5" d="M75.0938 90.75H25.5938" stroke="black" stroke-width="7" stroke-linecap="round"/>
</svg>
