<svg width="662" height="335" viewBox="0 0 662 335" fill="none" xmlns="http://www.w3.org/2000/svg">
<mask id="mask0_21_235" style="mask-type:alpha" maskUnits="userSpaceOnUse" x="0" y="-15" width="657" height="404">
<g clip-path="url(#clip0_21_235)">
<path fill-rule="evenodd" clip-rule="evenodd" d="M495.42 187.557C518.216 186.433 541.019 185.291 563.829 184.133L564.432 146.487C557.286 146.503 550.136 146.592 542.985 146.681C540.018 146.719 537.051 146.756 534.083 146.787C481.982 147.251 429.894 147.772 377.818 148.349C372.477 148.368 367.226 148.562 361.939 148.757C359.193 148.858 356.437 148.96 353.654 149.037C353.514 147.666 353.388 146.381 353.268 145.158C352.989 142.324 352.743 139.818 352.439 137.328C350.573 120.953 346.953 105.08 338.843 91.2163C334.648 83.585 328.979 77.1579 322.245 72.4003C315.512 67.6426 307.883 64.6734 299.91 63.7074C288.804 62.2774 277.881 65.1055 267.263 69.1394C261.255 71.4194 255.295 73.9193 249.337 76.4184C246.246 77.7151 243.155 79.0115 240.058 80.2769C235.938 82.1145 231.552 82.9783 227.177 82.8143C222.801 82.6502 218.531 81.4619 214.633 79.3237C208.242 75.7834 201.912 72.0915 195.84 67.952C194.267 66.8842 192.698 65.8084 191.13 64.7329C180.705 57.5843 170.297 50.4468 158.661 45.7692C144.111 39.8803 129.098 36.4539 113.494 39.4754C84.0224 45.1878 62.5479 63.8024 48.9073 94.1525C40.5134 113.627 35.4263 134.622 33.9185 156.015C31.1794 187.454 32.7107 218.348 41.3092 248.218C48.196 272.329 59.6793 292.399 79.2167 305.584C95.1356 316.72 114.237 320.869 133.03 317.273C149.215 314.002 164.742 307.041 178.658 296.817C183.416 293.478 188.132 290.057 192.849 286.636C198.554 282.497 204.259 278.358 210.04 274.365C214.511 271.054 219.56 268.922 224.802 268.133C230.043 267.344 235.338 267.919 240.281 269.814C243.44 270.991 246.598 272.112 249.754 273.233C252.359 274.159 254.962 275.084 257.564 276.039C266.679 279.652 276.179 281.993 285.858 283.013C306.542 284.765 323.029 275.619 335.769 257.003C345.298 243.044 349.296 226.87 351.865 209.999C352.372 206.69 352.735 203.365 353.105 199.972C353.291 198.263 353.479 196.537 353.689 194.788C354.259 194.769 354.788 194.757 355.29 194.746C355.962 194.731 356.587 194.717 357.201 194.688L495.42 187.557ZM219.124 178.27C218.355 202.27 236.591 221.628 259.856 221.507C283.122 221.385 302.606 201.83 303.375 177.83C304.144 153.829 285.908 134.471 262.642 134.592C239.377 134.714 219.893 154.269 219.124 178.27Z" fill="#FBEA54"/>
</g>
<ellipse cx="41.6399" cy="53.3548" rx="41.6399" ry="53.3548" transform="matrix(-0.021289 0.999772 -0.999746 -0.0225778 657.109 122.868)" fill="#FBEA54"/>
</mask>
<g mask="url(#mask0_21_235)">
<rect width="654.523" height="172.423" transform="matrix(0.999941 0.0108455 -0.0107491 0.999942 7.10858 0.339844)" fill="#3B84EF"/>
<rect width="654.523" height="155.006" transform="matrix(0.999941 0.0108455 -0.0107491 0.999942 5.25525 172.753)" fill="#FBEA54"/>
</g>
<defs>
<clipPath id="clip0_21_235">
<rect width="378.96" height="589.445" fill="white" transform="matrix(0.0380901 0.99935 -0.99906 0.0414405 589.03 -14.6714)"/>
</clipPath>
</defs>
</svg>
