<svg width="100" height="99" viewBox="0 0 100 99" fill="none" xmlns="http://www.w3.org/2000/svg">
<path fill-rule="evenodd" clip-rule="evenodd" d="M35.9541 15.2558C37.8297 16.8048 40.2196 17.5312 42.0937 17.5312C43.8023 17.5312 45.1875 18.9164 45.1875 20.625C45.1875 22.3336 43.8023 23.7187 42.0937 23.7187C39.1219 23.7187 35.6939 22.7252 32.8125 20.6436V45.375C32.8125 46.0329 32.6071 46.643 32.2569 47.1446C30.6082 52.6812 25.4787 56.7187 19.4062 56.7187C12.0022 56.7187 6 50.7165 6 43.3125C6 35.9084 12.0022 29.9062 19.4062 29.9062C22.0641 29.9062 24.5413 30.6797 26.625 32.0138V8.25H32.8125C32.8125 11.5411 34.1671 13.78 35.9541 15.2558ZM26.625 43.3125C26.625 39.3257 23.3931 36.0937 19.4062 36.0937C15.4194 36.0937 12.1875 39.3257 12.1875 43.3125C12.1875 47.2993 15.4194 50.5312 19.4062 50.5312C23.3931 50.5312 26.625 47.2993 26.625 43.3125ZM81.5811 16.257C78.8104 16.9631 75.1824 18.4726 69.9177 20.6762L61.6677 24.1292C59.1506 25.1828 57.4915 25.8817 56.2718 26.5552C55.1184 27.1922 54.6189 27.6712 54.3013 28.1488C53.9832 28.6262 53.7345 29.272 53.5922 30.5819C53.4416 31.9669 53.4375 33.7671 53.4375 36.4959V44.9303L88.4988 30.9059C88.4909 26.3326 88.4373 23.0386 88.0735 20.5776C87.6639 17.809 86.9622 16.8609 86.2003 16.3539C85.4388 15.8469 84.2933 15.5659 81.5811 16.257ZM94.6875 32.9279V32.7837C94.6875 27.3989 94.6879 23.0076 94.1941 19.6721C93.6839 16.2233 92.5458 13.1444 89.6286 11.2029C86.7114 9.26133 83.4316 9.40017 80.0532 10.2611C76.7858 11.0937 72.7351 12.7892 67.7677 14.8684L59.13 18.4838C56.8014 19.4582 54.8289 20.2838 53.2807 21.1388C51.6332 22.0486 50.2142 23.1217 49.15 24.7206C48.0861 26.3196 47.6439 28.0429 47.441 29.9137C47.25 31.6721 47.25 33.8105 47.25 36.3345V49.4299C47.2488 49.4773 47.2488 49.5247 47.25 49.5722V69.1387C45.1665 67.8047 42.689 67.0312 40.0312 67.0312C32.6272 67.0312 26.625 73.0335 26.625 80.4375C26.625 87.8415 32.6272 93.8437 40.0312 93.8437C47.4352 93.8437 53.4375 87.8415 53.4375 80.4375C53.4375 79.7362 53.3835 79.0474 53.2799 78.375H53.4375V51.5947L88.5 37.5696V60.8887C86.4165 59.5547 83.939 58.7812 81.2812 58.7812C73.8773 58.7812 67.875 64.7835 67.875 72.1875C67.875 79.5915 73.8773 85.5937 81.2812 85.5937C88.6852 85.5937 94.6875 79.5915 94.6875 72.1875C94.6875 71.7053 94.6619 71.2288 94.6124 70.7594H94.6875V33.0702C94.6887 33.0229 94.6887 32.9754 94.6875 32.9279ZM81.2812 64.9687C77.2944 64.9687 74.0625 68.2007 74.0625 72.1875C74.0625 76.1743 77.2944 79.4062 81.2812 79.4062C85.2681 79.4062 88.5 76.1743 88.5 72.1875C88.5 68.2007 85.2681 64.9687 81.2812 64.9687ZM40.0312 73.2187C36.0444 73.2187 32.8125 76.4507 32.8125 80.4375C32.8125 84.4243 36.0444 87.6562 40.0312 87.6562C44.0181 87.6562 47.25 84.4243 47.25 80.4375C47.25 76.4507 44.0181 73.2187 40.0312 73.2187Z" fill="black"/>
</svg>
