<svg width="100" height="99" viewBox="0 0 100 99" fill="none" xmlns="http://www.w3.org/2000/svg">
<path fill-rule="evenodd" clip-rule="evenodd" d="M22.6237 53.279C22.6728 57.5776 24.4277 61.681 27.5023 64.6858C30.5769 67.6907 34.7194 69.3507 39.0181 69.3012H46.9619C49.1221 69.3028 51.1876 70.187 52.6801 71.7485L56.9134 76.1758C57.583 76.8541 58.4966 77.2358 59.4498 77.2358C60.4029 77.2358 61.3165 76.8541 61.9861 76.1758L68.5597 69.3012L70.7179 66.8935C71.1155 66.4619 71.5488 66.0643 72.0129 65.7055C75.826 62.7082 78.0554 58.1288 78.0637 53.279V33.8354C77.9572 24.8866 70.6182 17.7177 61.6693 17.8211H39.0181C30.0694 17.7177 22.7303 24.8866 22.6237 33.8354V53.279Z" stroke="black" stroke-width="7" stroke-linecap="round" stroke-linejoin="round"/>
<path d="M64.9787 50.785C65.5913 49.2636 64.8548 47.5335 63.3333 46.9205C61.8119 46.3078 60.0814 47.0444 59.4688 48.5658L64.9787 50.785ZM58.7231 54.4512L60.5994 56.7535L60.6105 56.7444L58.7231 54.4512ZM41.8852 54.3284L39.9624 56.592L39.9758 56.6034L41.8852 54.3284ZM41.2365 48.4367C40.6485 46.9054 38.9307 46.1407 37.3993 46.7284C35.868 47.3165 35.1032 49.0343 35.691 50.5656L41.2365 48.4367ZM41.4338 33.6612C41.4338 32.0209 40.104 30.6912 38.4638 30.6912C36.8235 30.6912 35.4938 32.0209 35.4938 33.6612H41.4338ZM35.4938 37.6212C35.4938 39.2615 36.8235 40.5912 38.4638 40.5912C40.104 40.5912 41.4338 39.2615 41.4338 37.6212H35.4938ZM65.1938 33.6612C65.1938 32.0209 63.864 30.6912 62.2238 30.6912C60.5835 30.6912 59.2538 32.0209 59.2538 33.6612H65.1938ZM59.2538 37.6212C59.2538 39.2615 60.5835 40.5912 62.2238 40.5912C63.864 40.5912 65.1938 39.2615 65.1938 37.6212H59.2538ZM59.4688 48.5658C58.9053 49.9645 58 51.1996 56.8358 52.1579L60.6105 56.7444C62.5421 55.1545 64.0442 53.1056 64.9787 50.785L59.4688 48.5658ZM56.8469 52.1488C53.037 55.2531 47.5591 55.2131 43.7947 52.0534L39.9758 56.6034C45.9236 61.5958 54.5794 61.6588 60.5994 56.7535L56.8469 52.1488ZM43.8078 52.0649C42.6602 51.0899 41.7759 49.8425 41.2365 48.4367L35.691 50.5656C36.5874 52.9004 38.0562 54.9727 39.9624 56.592L43.8078 52.0649ZM35.4938 33.6612V37.6212H41.4338V33.6612H35.4938ZM59.2538 33.6612V37.6212H65.1938V33.6612H59.2538Z" fill="black"/>
</svg>
