<svg width="100" height="99" viewBox="0 0 100 99" fill="none" xmlns="http://www.w3.org/2000/svg">
<path opacity="0.2" d="M87.4688 24.75L50.3438 37.125L13.2188 24.75L50.3438 12.375L87.4688 24.75Z" fill="black"/>
<path d="M88.4471 21.8149L51.3221 9.43987C50.687 9.22838 50.0005 9.22838 49.3654 9.43987L12.2999 21.795L12.2961 21.7964L12.2404 21.8149C12.2295 21.8185 12.2199 21.8244 12.2091 21.8282C12.0751 21.8743 11.9445 21.9297 11.8182 21.994C11.8037 22.0013 11.7887 22.0076 11.7743 22.0151C11.6492 22.0819 11.5289 22.1573 11.4141 22.2407C11.3888 22.2588 11.3642 22.2775 11.3395 22.2964C11.228 22.3809 11.1222 22.4727 11.0229 22.5714C11.0137 22.5807 11.0057 22.5909 10.9967 22.6003C10.9051 22.6957 10.8197 22.7968 10.741 22.9031C10.725 22.9246 10.7083 22.9456 10.6928 22.9676C10.6116 23.0823 10.5383 23.2025 10.4735 23.3272C10.4635 23.3464 10.4549 23.3662 10.4453 23.3856C10.3847 23.5078 10.3324 23.6339 10.2886 23.7631C10.2845 23.7753 10.2794 23.7868 10.2754 23.7991C10.2317 23.9364 10.1978 24.0767 10.1738 24.2188C10.1686 24.2485 10.1645 24.278 10.1602 24.3078C10.1379 24.4541 10.1262 24.6019 10.125 24.75V55.6875C10.125 56.508 10.4509 57.2949 11.0311 57.8751C11.6113 58.4553 12.3982 58.7812 13.2188 58.7812C14.0393 58.7812 14.8262 58.4553 15.4064 57.8751C15.9866 57.2949 16.3125 56.508 16.3125 55.6875V29.0425L29.3005 33.3719C25.8574 38.9315 24.7556 45.6283 26.2361 51.998C27.7165 58.3678 31.6588 63.8922 37.201 67.3635C29.8212 70.154 23.5239 75.2257 19.2248 81.8412C19.0024 82.1815 18.8493 82.5624 18.7741 82.9619C18.699 83.3614 18.7034 83.7718 18.787 84.1697C18.8706 84.5675 19.0317 84.945 19.2613 85.2805C19.4909 85.616 19.7843 85.903 20.1249 86.125C20.4654 86.3471 20.8464 86.4998 21.246 86.5745C21.6456 86.6492 22.056 86.6444 22.4538 86.5604C22.8515 86.4764 23.2288 86.3148 23.5641 86.0849C23.8994 85.855 24.186 85.5613 24.4077 85.2205C27.2184 80.9025 31.0626 77.3546 35.5917 74.8986C40.1209 72.4426 45.1915 71.1562 50.3437 71.1562C55.4958 71.1562 60.5665 72.4426 65.0956 74.8986C69.6247 77.3546 73.4689 80.9025 76.2796 85.2205C76.5015 85.5608 76.7882 85.8541 77.1234 86.0836C77.4587 86.3131 77.8358 86.4743 78.2334 86.5581C78.6309 86.6418 79.041 86.6464 79.4404 86.5717C79.8397 86.4969 80.2204 86.3442 80.5607 86.1223C80.901 85.9005 81.1943 85.6137 81.4238 85.2785C81.6533 84.9432 81.8145 84.5661 81.8982 84.1686C81.982 83.771 81.9866 83.3609 81.9118 82.9616C81.8371 82.5622 81.6844 82.1816 81.4625 81.8412C77.1634 75.2257 70.8662 70.154 63.4865 67.3636C69.0287 63.8923 72.971 58.3678 74.4514 51.9981C75.9319 45.6284 74.8301 38.9315 71.387 33.3719L88.4471 27.6851C89.0631 27.4798 89.5989 27.0858 89.9785 26.559C90.3582 26.0322 90.5625 25.3993 90.5625 24.75C90.5625 24.1007 90.3582 23.4678 89.9785 22.941C89.5989 22.4142 89.0631 22.0202 88.4471 21.8149ZM68.9062 46.4062C68.9069 49.3408 68.2119 52.2337 66.878 54.8476C65.5442 57.4616 63.6097 59.722 61.2331 61.4435C58.8565 63.165 56.1057 64.2985 53.2062 64.7511C50.3067 65.2036 47.3413 64.9622 44.5532 64.0468C41.765 63.1313 39.2337 61.5679 37.1668 59.4848C35.0999 57.4016 33.5563 54.8581 32.6627 52.0629C31.7692 49.2677 31.551 46.3004 32.0263 43.4046C32.5015 40.5087 33.6565 37.7668 35.3966 35.4038L49.3654 40.0601C50.0005 40.2716 50.687 40.2716 51.3221 40.0601L65.2909 35.4038C67.6421 38.5901 68.9093 42.4464 68.9062 46.4062ZM65.3106 28.8749C65.3029 28.8777 65.2951 28.8799 65.2875 28.8827L50.3438 33.8639L35.4001 28.8827C35.3922 28.8798 35.3843 28.8776 35.3764 28.8748L23.0021 24.75L50.3438 15.6361L77.6854 24.75L65.3106 28.8749Z" fill="black"/>
</svg>
